<mxfile host="Electron" agent="Mozilla/5.0 (Windows NT 10.0; Win64; x64) AppleWebKit/537.36 (KHTML, like Gecko) draw.io/26.0.16 Chrome/132.0.6834.196 Electron/34.2.0 Safari/537.36" version="26.0.16">
  <diagram id="C5RBs43oDa-KdzZeNtuy" name="Page-1">
    <mxGraphModel dx="1290" dy="621" grid="1" gridSize="10" guides="1" tooltips="1" connect="1" arrows="1" fold="1" page="1" pageScale="1" pageWidth="3300" pageHeight="4681" math="0" shadow="0">
      <root>
        <mxCell id="WIyWlLk6GJQsqaUBKTNV-0" />
        <mxCell id="WIyWlLk6GJQsqaUBKTNV-1" parent="WIyWlLk6GJQsqaUBKTNV-0" />
        <mxCell id="WIyWlLk6GJQsqaUBKTNV-2" value="" style="rounded=0;html=1;jettySize=auto;orthogonalLoop=1;fontSize=11;endArrow=block;endFill=0;endSize=8;strokeWidth=1;shadow=0;labelBackgroundColor=none;edgeStyle=orthogonalEdgeStyle;" parent="WIyWlLk6GJQsqaUBKTNV-1" source="WIyWlLk6GJQsqaUBKTNV-3" edge="1">
          <mxGeometry relative="1" as="geometry">
            <mxPoint x="350" y="270" as="targetPoint" />
          </mxGeometry>
        </mxCell>
        <mxCell id="WIyWlLk6GJQsqaUBKTNV-3" value="Game Initialisation&lt;div&gt;(Load Assets)&lt;/div&gt;" style="rounded=1;whiteSpace=wrap;html=1;fontSize=12;glass=0;strokeWidth=1;shadow=0;" parent="WIyWlLk6GJQsqaUBKTNV-1" vertex="1">
          <mxGeometry x="290" y="180" width="120" height="40" as="geometry" />
        </mxCell>
        <mxCell id="1fdeLEEjjAAhwOauOGlp-2" value="" style="rounded=0;html=1;jettySize=auto;orthogonalLoop=1;fontSize=11;endArrow=block;endFill=0;endSize=8;strokeWidth=1;shadow=0;labelBackgroundColor=none;edgeStyle=orthogonalEdgeStyle;" edge="1" parent="WIyWlLk6GJQsqaUBKTNV-1">
          <mxGeometry relative="1" as="geometry">
            <mxPoint x="348" y="132" as="sourcePoint" />
            <mxPoint x="348" y="182" as="targetPoint" />
          </mxGeometry>
        </mxCell>
        <mxCell id="1fdeLEEjjAAhwOauOGlp-5" value="Initialise Game Variable&lt;div&gt;Health, Money, Play Area&lt;br&gt;&lt;div&gt;&lt;br&gt;&lt;/div&gt;&lt;/div&gt;" style="rounded=1;whiteSpace=wrap;html=1;fontSize=12;glass=0;strokeWidth=1;shadow=0;" vertex="1" parent="WIyWlLk6GJQsqaUBKTNV-1">
          <mxGeometry x="269" y="270" width="160" height="40" as="geometry" />
        </mxCell>
        <mxCell id="1fdeLEEjjAAhwOauOGlp-6" value="" style="rounded=0;html=1;jettySize=auto;orthogonalLoop=1;fontSize=11;endArrow=block;endFill=0;endSize=8;strokeWidth=1;shadow=0;labelBackgroundColor=none;edgeStyle=orthogonalEdgeStyle;" edge="1" parent="WIyWlLk6GJQsqaUBKTNV-1">
          <mxGeometry relative="1" as="geometry">
            <mxPoint x="351" y="310" as="sourcePoint" />
            <mxPoint x="351" y="360" as="targetPoint" />
          </mxGeometry>
        </mxCell>
        <mxCell id="1fdeLEEjjAAhwOauOGlp-7" value="Initialise Game Variable&lt;div&gt;Health, Money, Play Area&lt;br&gt;&lt;div&gt;&lt;br&gt;&lt;/div&gt;&lt;/div&gt;" style="rounded=1;whiteSpace=wrap;html=1;fontSize=12;glass=0;strokeWidth=1;shadow=0;" vertex="1" parent="WIyWlLk6GJQsqaUBKTNV-1">
          <mxGeometry x="270" y="360" width="160" height="40" as="geometry" />
        </mxCell>
        <mxCell id="1fdeLEEjjAAhwOauOGlp-8" value="" style="rounded=0;html=1;jettySize=auto;orthogonalLoop=1;fontSize=11;endArrow=block;endFill=0;endSize=8;strokeWidth=1;shadow=0;labelBackgroundColor=none;edgeStyle=orthogonalEdgeStyle;" edge="1" parent="WIyWlLk6GJQsqaUBKTNV-1">
          <mxGeometry relative="1" as="geometry">
            <mxPoint x="351" y="400" as="sourcePoint" />
            <mxPoint x="351" y="450" as="targetPoint" />
          </mxGeometry>
        </mxCell>
        <mxCell id="1fdeLEEjjAAhwOauOGlp-9" value="Initialise WatchTowers&lt;div&gt;Create WatchTower Objects&lt;br&gt;&lt;div&gt;&lt;div&gt;&lt;br&gt;&lt;/div&gt;&lt;/div&gt;&lt;/div&gt;" style="rounded=1;whiteSpace=wrap;html=1;fontSize=12;glass=0;strokeWidth=1;shadow=0;" vertex="1" parent="WIyWlLk6GJQsqaUBKTNV-1">
          <mxGeometry x="270" y="450" width="160" height="40" as="geometry" />
        </mxCell>
        <mxCell id="1fdeLEEjjAAhwOauOGlp-10" value="" style="rounded=0;html=1;jettySize=auto;orthogonalLoop=1;fontSize=11;endArrow=block;endFill=0;endSize=8;strokeWidth=1;shadow=0;labelBackgroundColor=none;edgeStyle=orthogonalEdgeStyle;" edge="1" parent="WIyWlLk6GJQsqaUBKTNV-1">
          <mxGeometry relative="1" as="geometry">
            <mxPoint x="351" y="490" as="sourcePoint" />
            <mxPoint x="351" y="540" as="targetPoint" />
          </mxGeometry>
        </mxCell>
        <mxCell id="1fdeLEEjjAAhwOauOGlp-11" value="Initialise Nemesis&lt;div&gt;Create Nemesis Objects&lt;br&gt;&lt;div&gt;&lt;div&gt;&lt;br&gt;&lt;/div&gt;&lt;/div&gt;&lt;/div&gt;" style="rounded=1;whiteSpace=wrap;html=1;fontSize=12;glass=0;strokeWidth=1;shadow=0;" vertex="1" parent="WIyWlLk6GJQsqaUBKTNV-1">
          <mxGeometry x="270" y="540" width="160" height="40" as="geometry" />
        </mxCell>
        <mxCell id="1fdeLEEjjAAhwOauOGlp-12" value="" style="rounded=0;html=1;jettySize=auto;orthogonalLoop=1;fontSize=11;endArrow=block;endFill=0;endSize=8;strokeWidth=1;shadow=0;labelBackgroundColor=none;edgeStyle=orthogonalEdgeStyle;" edge="1" parent="WIyWlLk6GJQsqaUBKTNV-1">
          <mxGeometry relative="1" as="geometry">
            <mxPoint x="351" y="580" as="sourcePoint" />
            <mxPoint x="351" y="630" as="targetPoint" />
          </mxGeometry>
        </mxCell>
        <mxCell id="1fdeLEEjjAAhwOauOGlp-13" value="&lt;div&gt;&lt;div&gt;&lt;div&gt;Load UI&lt;/div&gt;&lt;/div&gt;&lt;/div&gt;&lt;div&gt;(Display Menu)&lt;/div&gt;" style="rounded=1;whiteSpace=wrap;html=1;fontSize=12;glass=0;strokeWidth=1;shadow=0;" vertex="1" parent="WIyWlLk6GJQsqaUBKTNV-1">
          <mxGeometry x="270" y="630" width="160" height="40" as="geometry" />
        </mxCell>
        <mxCell id="1fdeLEEjjAAhwOauOGlp-14" value="" style="rounded=0;html=1;jettySize=auto;orthogonalLoop=1;fontSize=11;endArrow=block;endFill=0;endSize=8;strokeWidth=1;shadow=0;labelBackgroundColor=none;edgeStyle=orthogonalEdgeStyle;" edge="1" parent="WIyWlLk6GJQsqaUBKTNV-1">
          <mxGeometry relative="1" as="geometry">
            <mxPoint x="351" y="670" as="sourcePoint" />
            <mxPoint x="351" y="720" as="targetPoint" />
          </mxGeometry>
        </mxCell>
        <mxCell id="1fdeLEEjjAAhwOauOGlp-15" value="&lt;div&gt;&lt;div&gt;&lt;div&gt;Display Game Info&lt;/div&gt;&lt;/div&gt;&lt;/div&gt;&lt;div&gt;(Health, Money, Waves)&lt;/div&gt;" style="rounded=1;whiteSpace=wrap;html=1;fontSize=12;glass=0;strokeWidth=1;shadow=0;" vertex="1" parent="WIyWlLk6GJQsqaUBKTNV-1">
          <mxGeometry x="270" y="720" width="160" height="40" as="geometry" />
        </mxCell>
        <mxCell id="1fdeLEEjjAAhwOauOGlp-17" value="" style="rounded=0;html=1;jettySize=auto;orthogonalLoop=1;fontSize=11;endArrow=block;endFill=0;endSize=8;strokeWidth=1;shadow=0;labelBackgroundColor=none;edgeStyle=orthogonalEdgeStyle;" edge="1" parent="WIyWlLk6GJQsqaUBKTNV-1">
          <mxGeometry relative="1" as="geometry">
            <mxPoint x="350" y="760" as="sourcePoint" />
            <mxPoint x="350" y="810" as="targetPoint" />
          </mxGeometry>
        </mxCell>
        <mxCell id="1fdeLEEjjAAhwOauOGlp-18" value="&lt;div&gt;&lt;div&gt;&lt;div&gt;Enter Game Loop&lt;/div&gt;&lt;/div&gt;&lt;/div&gt;" style="rounded=1;whiteSpace=wrap;html=1;fontSize=12;glass=0;strokeWidth=1;shadow=0;" vertex="1" parent="WIyWlLk6GJQsqaUBKTNV-1">
          <mxGeometry x="269" y="810" width="160" height="40" as="geometry" />
        </mxCell>
        <mxCell id="1fdeLEEjjAAhwOauOGlp-19" value="" style="rounded=0;html=1;jettySize=auto;orthogonalLoop=1;fontSize=11;endArrow=block;endFill=0;endSize=8;strokeWidth=1;shadow=0;labelBackgroundColor=none;edgeStyle=orthogonalEdgeStyle;" edge="1" parent="WIyWlLk6GJQsqaUBKTNV-1">
          <mxGeometry relative="1" as="geometry">
            <mxPoint x="351" y="850" as="sourcePoint" />
            <mxPoint x="351" y="900" as="targetPoint" />
          </mxGeometry>
        </mxCell>
        <mxCell id="1fdeLEEjjAAhwOauOGlp-21" value="Player Action?&lt;div&gt;(Place/Upgrade WatchTower)&lt;/div&gt;" style="rhombus;whiteSpace=wrap;html=1;shadow=0;fontFamily=Helvetica;fontSize=12;align=center;strokeWidth=1;spacing=6;spacingTop=-4;" vertex="1" parent="WIyWlLk6GJQsqaUBKTNV-1">
          <mxGeometry x="291" y="1069" width="120" height="100" as="geometry" />
        </mxCell>
        <mxCell id="1fdeLEEjjAAhwOauOGlp-25" value="" style="edgeStyle=orthogonalEdgeStyle;rounded=0;orthogonalLoop=1;jettySize=auto;html=1;entryX=0.5;entryY=0;entryDx=0;entryDy=0;" edge="1" parent="WIyWlLk6GJQsqaUBKTNV-1" target="1fdeLEEjjAAhwOauOGlp-26">
          <mxGeometry relative="1" as="geometry">
            <mxPoint x="412" y="1119" as="sourcePoint" />
            <mxPoint x="462" y="1119" as="targetPoint" />
          </mxGeometry>
        </mxCell>
        <mxCell id="1fdeLEEjjAAhwOauOGlp-26" value="Update Game Object&lt;div&gt;(WatchTowers, Nemesis, etc)&lt;/div&gt;" style="rounded=1;whiteSpace=wrap;html=1;fontSize=12;glass=0;strokeWidth=1;shadow=0;" vertex="1" parent="WIyWlLk6GJQsqaUBKTNV-1">
          <mxGeometry x="544" y="1200" width="160" height="40" as="geometry" />
        </mxCell>
        <mxCell id="1fdeLEEjjAAhwOauOGlp-29" value="" style="edgeStyle=orthogonalEdgeStyle;rounded=0;orthogonalLoop=1;jettySize=auto;html=1;entryX=0.5;entryY=0;entryDx=0;entryDy=0;" edge="1" parent="WIyWlLk6GJQsqaUBKTNV-1" target="1fdeLEEjjAAhwOauOGlp-30">
          <mxGeometry relative="1" as="geometry">
            <mxPoint x="290" y="1118.5" as="sourcePoint" />
            <mxPoint x="240" y="1118.5" as="targetPoint" />
          </mxGeometry>
        </mxCell>
        <mxCell id="1fdeLEEjjAAhwOauOGlp-30" value="Process Player Input&lt;div&gt;(Mouse Click, etc)&lt;/div&gt;" style="rounded=1;whiteSpace=wrap;html=1;fontSize=12;glass=0;strokeWidth=1;shadow=0;" vertex="1" parent="WIyWlLk6GJQsqaUBKTNV-1">
          <mxGeometry x="43" y="1200" width="120" height="40" as="geometry" />
        </mxCell>
        <mxCell id="1fdeLEEjjAAhwOauOGlp-31" value="Yes" style="text;strokeColor=none;align=center;fillColor=none;html=1;verticalAlign=middle;whiteSpace=wrap;rounded=0;" vertex="1" parent="WIyWlLk6GJQsqaUBKTNV-1">
          <mxGeometry x="230" y="1090" width="60" height="10" as="geometry" />
        </mxCell>
        <mxCell id="1fdeLEEjjAAhwOauOGlp-32" value="No" style="text;strokeColor=none;align=center;fillColor=none;html=1;verticalAlign=middle;whiteSpace=wrap;rounded=0;" vertex="1" parent="WIyWlLk6GJQsqaUBKTNV-1">
          <mxGeometry x="420" y="1080" width="60" height="30" as="geometry" />
        </mxCell>
        <mxCell id="1fdeLEEjjAAhwOauOGlp-34" value="" style="rounded=0;html=1;jettySize=auto;orthogonalLoop=1;fontSize=11;endArrow=block;endFill=0;endSize=8;strokeWidth=1;shadow=0;labelBackgroundColor=none;edgeStyle=orthogonalEdgeStyle;" edge="1" parent="WIyWlLk6GJQsqaUBKTNV-1">
          <mxGeometry relative="1" as="geometry">
            <mxPoint x="625" y="1240" as="sourcePoint" />
            <mxPoint x="625" y="1290" as="targetPoint" />
          </mxGeometry>
        </mxCell>
        <mxCell id="1fdeLEEjjAAhwOauOGlp-35" value="&lt;div&gt;&lt;div&gt;&lt;div&gt;Handle Nemesis Movement&lt;/div&gt;&lt;/div&gt;&lt;/div&gt;&lt;div&gt;(Move along the path)&lt;/div&gt;" style="rounded=1;whiteSpace=wrap;html=1;fontSize=12;glass=0;strokeWidth=1;shadow=0;" vertex="1" parent="WIyWlLk6GJQsqaUBKTNV-1">
          <mxGeometry x="544" y="1290" width="160" height="40" as="geometry" />
        </mxCell>
        <mxCell id="1fdeLEEjjAAhwOauOGlp-37" value="" style="rounded=0;html=1;jettySize=auto;orthogonalLoop=1;fontSize=11;endArrow=block;endFill=0;endSize=8;strokeWidth=1;shadow=0;labelBackgroundColor=none;edgeStyle=orthogonalEdgeStyle;" edge="1" parent="WIyWlLk6GJQsqaUBKTNV-1">
          <mxGeometry relative="1" as="geometry">
            <mxPoint x="625" y="1332" as="sourcePoint" />
            <mxPoint x="625" y="1382" as="targetPoint" />
          </mxGeometry>
        </mxCell>
        <mxCell id="1fdeLEEjjAAhwOauOGlp-38" value="&lt;div&gt;Check for Collisions&lt;/div&gt;&lt;div&gt;(Attack from WatchTowers)&lt;/div&gt;" style="rounded=1;whiteSpace=wrap;html=1;fontSize=12;glass=0;strokeWidth=1;shadow=0;" vertex="1" parent="WIyWlLk6GJQsqaUBKTNV-1">
          <mxGeometry x="544" y="1382" width="160" height="40" as="geometry" />
        </mxCell>
        <mxCell id="1fdeLEEjjAAhwOauOGlp-39" value="" style="rounded=0;html=1;jettySize=auto;orthogonalLoop=1;fontSize=11;endArrow=block;endFill=0;endSize=8;strokeWidth=1;shadow=0;labelBackgroundColor=none;edgeStyle=orthogonalEdgeStyle;" edge="1" parent="WIyWlLk6GJQsqaUBKTNV-1">
          <mxGeometry relative="1" as="geometry">
            <mxPoint x="104" y="1240" as="sourcePoint" />
            <mxPoint x="104" y="1290" as="targetPoint" />
          </mxGeometry>
        </mxCell>
        <mxCell id="1fdeLEEjjAAhwOauOGlp-40" value="&lt;div&gt;&lt;div&gt;&lt;div&gt;Update Resources&lt;/div&gt;&lt;/div&gt;&lt;/div&gt;&lt;div&gt;(Earn Money, lose health)&lt;/div&gt;" style="rounded=1;whiteSpace=wrap;html=1;fontSize=12;glass=0;strokeWidth=1;shadow=0;" vertex="1" parent="WIyWlLk6GJQsqaUBKTNV-1">
          <mxGeometry x="23" y="1290" width="160" height="40" as="geometry" />
        </mxCell>
        <mxCell id="1fdeLEEjjAAhwOauOGlp-41" value="" style="rounded=0;html=1;jettySize=auto;orthogonalLoop=1;fontSize=11;endArrow=block;endFill=0;endSize=8;strokeWidth=1;shadow=0;labelBackgroundColor=none;edgeStyle=orthogonalEdgeStyle;" edge="1" parent="WIyWlLk6GJQsqaUBKTNV-1">
          <mxGeometry relative="1" as="geometry">
            <mxPoint x="104" y="1332" as="sourcePoint" />
            <mxPoint x="104" y="1382" as="targetPoint" />
          </mxGeometry>
        </mxCell>
        <mxCell id="1fdeLEEjjAAhwOauOGlp-42" value="&lt;div&gt;Update WatchTowers&lt;/div&gt;&lt;div&gt;(currency, health)&lt;/div&gt;" style="rounded=1;whiteSpace=wrap;html=1;fontSize=12;glass=0;strokeWidth=1;shadow=0;" vertex="1" parent="WIyWlLk6GJQsqaUBKTNV-1">
          <mxGeometry x="23" y="1382" width="160" height="40" as="geometry" />
        </mxCell>
        <mxCell id="1fdeLEEjjAAhwOauOGlp-43" value="" style="rounded=0;html=1;jettySize=auto;orthogonalLoop=1;fontSize=11;endArrow=block;endFill=0;endSize=8;strokeWidth=1;shadow=0;labelBackgroundColor=none;edgeStyle=orthogonalEdgeStyle;" edge="1" parent="WIyWlLk6GJQsqaUBKTNV-1">
          <mxGeometry relative="1" as="geometry">
            <mxPoint x="104" y="1422" as="sourcePoint" />
            <mxPoint x="104" y="1472" as="targetPoint" />
          </mxGeometry>
        </mxCell>
        <mxCell id="1fdeLEEjjAAhwOauOGlp-44" value="&lt;div&gt;&lt;div&gt;&lt;div&gt;Update UI&lt;/div&gt;&lt;/div&gt;&lt;/div&gt;&lt;div&gt;(Health, Money, WatchTower status, etc)&lt;/div&gt;" style="rounded=1;whiteSpace=wrap;html=1;fontSize=12;glass=0;strokeWidth=1;shadow=0;" vertex="1" parent="WIyWlLk6GJQsqaUBKTNV-1">
          <mxGeometry x="23" y="1472" width="160" height="40" as="geometry" />
        </mxCell>
        <mxCell id="1fdeLEEjjAAhwOauOGlp-45" value="" style="rounded=0;html=1;jettySize=auto;orthogonalLoop=1;fontSize=11;endArrow=block;endFill=0;endSize=8;strokeWidth=1;shadow=0;labelBackgroundColor=none;edgeStyle=orthogonalEdgeStyle;" edge="1" parent="WIyWlLk6GJQsqaUBKTNV-1">
          <mxGeometry relative="1" as="geometry">
            <mxPoint x="104" y="1514" as="sourcePoint" />
            <mxPoint x="104" y="1564" as="targetPoint" />
          </mxGeometry>
        </mxCell>
        <mxCell id="1fdeLEEjjAAhwOauOGlp-46" value="&lt;div&gt;Start Next Wave&lt;/div&gt;" style="rounded=1;whiteSpace=wrap;html=1;fontSize=12;glass=0;strokeWidth=1;shadow=0;" vertex="1" parent="WIyWlLk6GJQsqaUBKTNV-1">
          <mxGeometry x="226" y="1847" width="160" height="40" as="geometry" />
        </mxCell>
        <mxCell id="1fdeLEEjjAAhwOauOGlp-47" value="Wave Completed?" style="rhombus;whiteSpace=wrap;html=1;shadow=0;fontFamily=Helvetica;fontSize=12;align=center;strokeWidth=1;spacing=6;spacingTop=-4;" vertex="1" parent="WIyWlLk6GJQsqaUBKTNV-1">
          <mxGeometry x="380" y="1718" width="120" height="100" as="geometry" />
        </mxCell>
        <mxCell id="1fdeLEEjjAAhwOauOGlp-48" value="" style="edgeStyle=orthogonalEdgeStyle;rounded=0;orthogonalLoop=1;jettySize=auto;html=1;entryX=1;entryY=0.5;entryDx=0;entryDy=0;entryPerimeter=0;" edge="1" parent="WIyWlLk6GJQsqaUBKTNV-1" target="1fdeLEEjjAAhwOauOGlp-96">
          <mxGeometry relative="1" as="geometry">
            <mxPoint x="501" y="1768" as="sourcePoint" />
            <mxPoint x="529" y="1945" as="targetPoint" />
            <Array as="points">
              <mxPoint x="599" y="1768" />
              <mxPoint x="599" y="1945" />
              <mxPoint x="470" y="1945" />
            </Array>
          </mxGeometry>
        </mxCell>
        <mxCell id="1fdeLEEjjAAhwOauOGlp-49" value="" style="edgeStyle=orthogonalEdgeStyle;rounded=0;orthogonalLoop=1;jettySize=auto;html=1;entryX=0.5;entryY=0;entryDx=0;entryDy=0;" edge="1" parent="WIyWlLk6GJQsqaUBKTNV-1">
          <mxGeometry relative="1" as="geometry">
            <mxPoint x="369" y="1765" as="sourcePoint" />
            <mxPoint x="299" y="1847" as="targetPoint" />
            <Array as="points">
              <mxPoint x="386" y="1765" />
              <mxPoint x="386" y="1766" />
              <mxPoint x="299" y="1766" />
            </Array>
          </mxGeometry>
        </mxCell>
        <mxCell id="1fdeLEEjjAAhwOauOGlp-50" value="Yes" style="text;strokeColor=none;align=center;fillColor=none;html=1;verticalAlign=middle;whiteSpace=wrap;rounded=0;" vertex="1" parent="WIyWlLk6GJQsqaUBKTNV-1">
          <mxGeometry x="319" y="1739" width="60" height="10" as="geometry" />
        </mxCell>
        <mxCell id="1fdeLEEjjAAhwOauOGlp-51" value="No" style="text;strokeColor=none;align=center;fillColor=none;html=1;verticalAlign=middle;whiteSpace=wrap;rounded=0;" vertex="1" parent="WIyWlLk6GJQsqaUBKTNV-1">
          <mxGeometry x="509" y="1729" width="60" height="30" as="geometry" />
        </mxCell>
        <mxCell id="1fdeLEEjjAAhwOauOGlp-54" value="" style="endArrow=classic;html=1;rounded=0;entryX=0.07;entryY=0.33;entryDx=0;entryDy=0;exitX=0.43;exitY=0.97;exitDx=0;exitDy=0;exitPerimeter=0;entryPerimeter=0;" edge="1" parent="WIyWlLk6GJQsqaUBKTNV-1" source="1fdeLEEjjAAhwOauOGlp-46" target="1fdeLEEjjAAhwOauOGlp-96">
          <mxGeometry width="50" height="50" relative="1" as="geometry">
            <mxPoint x="242.60000000000036" y="1883.4" as="sourcePoint" />
            <mxPoint x="369" y="1945" as="targetPoint" />
            <Array as="points">
              <mxPoint x="296" y="1945" />
            </Array>
          </mxGeometry>
        </mxCell>
        <mxCell id="1fdeLEEjjAAhwOauOGlp-55" value="" style="rounded=0;html=1;jettySize=auto;orthogonalLoop=1;fontSize=11;endArrow=block;endFill=0;endSize=8;strokeWidth=1;shadow=0;labelBackgroundColor=none;edgeStyle=orthogonalEdgeStyle;" edge="1" parent="WIyWlLk6GJQsqaUBKTNV-1">
          <mxGeometry relative="1" as="geometry">
            <mxPoint x="625" y="1422" as="sourcePoint" />
            <mxPoint x="625" y="1472" as="targetPoint" />
          </mxGeometry>
        </mxCell>
        <mxCell id="1fdeLEEjjAAhwOauOGlp-71" value="Start" style="strokeWidth=2;html=1;shape=mxgraph.flowchart.start_1;whiteSpace=wrap;" vertex="1" parent="WIyWlLk6GJQsqaUBKTNV-1">
          <mxGeometry x="298" y="73" width="100" height="60" as="geometry" />
        </mxCell>
        <mxCell id="1fdeLEEjjAAhwOauOGlp-74" value="Is Playerhealth &amp;lt;= 0 or clicked on quit" style="rhombus;whiteSpace=wrap;html=1;shadow=0;fontFamily=Helvetica;fontSize=12;align=center;strokeWidth=1;spacing=6;spacingTop=-4;" vertex="1" parent="WIyWlLk6GJQsqaUBKTNV-1">
          <mxGeometry x="285.5" y="900" width="131" height="120" as="geometry" />
        </mxCell>
        <mxCell id="1fdeLEEjjAAhwOauOGlp-76" value="" style="endArrow=classic;html=1;rounded=0;" edge="1" parent="WIyWlLk6GJQsqaUBKTNV-1">
          <mxGeometry width="50" height="50" relative="1" as="geometry">
            <mxPoint x="416.5" y="960" as="sourcePoint" />
            <mxPoint x="486.5" y="960" as="targetPoint" />
          </mxGeometry>
        </mxCell>
        <mxCell id="1fdeLEEjjAAhwOauOGlp-77" value="&lt;div&gt;&lt;div&gt;&lt;div&gt;End Game&lt;/div&gt;&lt;/div&gt;&lt;/div&gt;" style="rounded=1;whiteSpace=wrap;html=1;fontSize=12;glass=0;strokeWidth=1;shadow=0;" vertex="1" parent="WIyWlLk6GJQsqaUBKTNV-1">
          <mxGeometry x="488" y="940" width="160" height="40" as="geometry" />
        </mxCell>
        <mxCell id="1fdeLEEjjAAhwOauOGlp-79" value="" style="endArrow=classic;html=1;rounded=0;" edge="1" parent="WIyWlLk6GJQsqaUBKTNV-1">
          <mxGeometry width="50" height="50" relative="1" as="geometry">
            <mxPoint x="350.5" y="1020" as="sourcePoint" />
            <mxPoint x="351" y="1070" as="targetPoint" />
          </mxGeometry>
        </mxCell>
        <mxCell id="1fdeLEEjjAAhwOauOGlp-80" value="Yes" style="text;strokeColor=none;align=center;fillColor=none;html=1;verticalAlign=middle;whiteSpace=wrap;rounded=0;" vertex="1" parent="WIyWlLk6GJQsqaUBKTNV-1">
          <mxGeometry x="410" y="940" width="60" height="10" as="geometry" />
        </mxCell>
        <mxCell id="1fdeLEEjjAAhwOauOGlp-81" value="No" style="text;strokeColor=none;align=center;fillColor=none;html=1;verticalAlign=middle;whiteSpace=wrap;rounded=0;" vertex="1" parent="WIyWlLk6GJQsqaUBKTNV-1">
          <mxGeometry x="338" y="1020" width="60" height="30" as="geometry" />
        </mxCell>
        <mxCell id="1fdeLEEjjAAhwOauOGlp-83" value="A" style="strokeWidth=2;html=1;shape=mxgraph.flowchart.start_2;whiteSpace=wrap;" vertex="1" parent="WIyWlLk6GJQsqaUBKTNV-1">
          <mxGeometry x="173" y="940" width="40" height="40" as="geometry" />
        </mxCell>
        <mxCell id="1fdeLEEjjAAhwOauOGlp-84" value="" style="rounded=0;html=1;jettySize=auto;orthogonalLoop=1;fontSize=11;endArrow=block;endFill=0;endSize=8;strokeWidth=1;shadow=0;labelBackgroundColor=none;edgeStyle=orthogonalEdgeStyle;entryX=0;entryY=0.5;entryDx=0;entryDy=0;exitX=1;exitY=0.5;exitDx=0;exitDy=0;exitPerimeter=0;" edge="1" parent="WIyWlLk6GJQsqaUBKTNV-1" source="1fdeLEEjjAAhwOauOGlp-83" target="1fdeLEEjjAAhwOauOGlp-74">
          <mxGeometry relative="1" as="geometry">
            <mxPoint x="235" y="770" as="sourcePoint" />
            <mxPoint x="235" y="820" as="targetPoint" />
          </mxGeometry>
        </mxCell>
        <mxCell id="1fdeLEEjjAAhwOauOGlp-85" value="A" style="strokeWidth=2;html=1;shape=mxgraph.flowchart.start_2;whiteSpace=wrap;" vertex="1" parent="WIyWlLk6GJQsqaUBKTNV-1">
          <mxGeometry x="84" y="1564" width="40" height="40" as="geometry" />
        </mxCell>
        <mxCell id="1fdeLEEjjAAhwOauOGlp-86" value="Is hit?" style="rhombus;whiteSpace=wrap;html=1;shadow=0;fontFamily=Helvetica;fontSize=12;align=center;strokeWidth=1;spacing=6;spacingTop=-4;" vertex="1" parent="WIyWlLk6GJQsqaUBKTNV-1">
          <mxGeometry x="569" y="1472" width="114" height="100" as="geometry" />
        </mxCell>
        <mxCell id="1fdeLEEjjAAhwOauOGlp-88" value="" style="edgeStyle=orthogonalEdgeStyle;rounded=0;orthogonalLoop=1;jettySize=auto;html=1;entryX=0.5;entryY=0;entryDx=0;entryDy=0;" edge="1" parent="WIyWlLk6GJQsqaUBKTNV-1">
          <mxGeometry relative="1" as="geometry">
            <mxPoint x="568" y="1521.5" as="sourcePoint" />
            <mxPoint x="438" y="1603" as="targetPoint" />
            <Array as="points">
              <mxPoint x="439" y="1522" />
            </Array>
          </mxGeometry>
        </mxCell>
        <mxCell id="1fdeLEEjjAAhwOauOGlp-89" value="Yes" style="text;strokeColor=none;align=center;fillColor=none;html=1;verticalAlign=middle;whiteSpace=wrap;rounded=0;" vertex="1" parent="WIyWlLk6GJQsqaUBKTNV-1">
          <mxGeometry x="504" y="1493" width="54" height="10" as="geometry" />
        </mxCell>
        <mxCell id="1fdeLEEjjAAhwOauOGlp-90" value="No" style="text;strokeColor=none;align=center;fillColor=none;html=1;verticalAlign=middle;whiteSpace=wrap;rounded=0;" vertex="1" parent="WIyWlLk6GJQsqaUBKTNV-1">
          <mxGeometry x="694" y="1483" width="54" height="30" as="geometry" />
        </mxCell>
        <mxCell id="1fdeLEEjjAAhwOauOGlp-91" value="&lt;div&gt;Remove Nemesis from the list&lt;/div&gt;" style="rounded=1;whiteSpace=wrap;html=1;fontSize=12;glass=0;strokeWidth=1;shadow=0;" vertex="1" parent="WIyWlLk6GJQsqaUBKTNV-1">
          <mxGeometry x="360" y="1604" width="160" height="40" as="geometry" />
        </mxCell>
        <mxCell id="1fdeLEEjjAAhwOauOGlp-93" value="A" style="strokeWidth=2;html=1;shape=mxgraph.flowchart.start_2;whiteSpace=wrap;" vertex="1" parent="WIyWlLk6GJQsqaUBKTNV-1">
          <mxGeometry x="770" y="1604" width="40" height="40" as="geometry" />
        </mxCell>
        <mxCell id="1fdeLEEjjAAhwOauOGlp-95" value="" style="endArrow=classic;html=1;rounded=0;exitX=0.5;exitY=1;exitDx=0;exitDy=0;" edge="1" parent="WIyWlLk6GJQsqaUBKTNV-1" source="1fdeLEEjjAAhwOauOGlp-91" target="1fdeLEEjjAAhwOauOGlp-47">
          <mxGeometry width="50" height="50" relative="1" as="geometry">
            <mxPoint x="440" y="1650" as="sourcePoint" />
            <mxPoint x="470" y="1660" as="targetPoint" />
          </mxGeometry>
        </mxCell>
        <mxCell id="1fdeLEEjjAAhwOauOGlp-96" value="A" style="strokeWidth=2;html=1;shape=mxgraph.flowchart.start_2;whiteSpace=wrap;" vertex="1" parent="WIyWlLk6GJQsqaUBKTNV-1">
          <mxGeometry x="430" y="1930" width="40" height="40" as="geometry" />
        </mxCell>
        <mxCell id="1fdeLEEjjAAhwOauOGlp-98" value="" style="edgeStyle=orthogonalEdgeStyle;rounded=0;orthogonalLoop=1;jettySize=auto;html=1;entryX=0.5;entryY=0;entryDx=0;entryDy=0;exitX=1;exitY=0.5;exitDx=0;exitDy=0;entryPerimeter=0;" edge="1" parent="WIyWlLk6GJQsqaUBKTNV-1" target="1fdeLEEjjAAhwOauOGlp-93">
          <mxGeometry relative="1" as="geometry">
            <mxPoint x="683" y="1524" as="sourcePoint" />
            <mxPoint x="720" y="1615" as="targetPoint" />
            <Array as="points">
              <mxPoint x="683" y="1522" />
              <mxPoint x="790" y="1522" />
            </Array>
          </mxGeometry>
        </mxCell>
      </root>
    </mxGraphModel>
  </diagram>
</mxfile>
